<?xml version="1.0" encoding="utf-8"?>
<!-- Generator: Adobe Illustrator 28.2.0, SVG Export Plug-In . SVG Version: 6.00 Build 0)  -->
<svg width="48" height="48" version="1.1" id="Layer_1" xmlns="http://www.w3.org/2000/svg" xmlns:xlink="http://www.w3.org/1999/xlink" x="0px" y="0px"
	 viewBox="0 0 33.2 39" style="enable-background:new 0 0 33.2 39;" xml:space="preserve">
<style type="text/css">
	.st0{fill:#ED1C2A;}
	.st1{fill:#D71826;}
</style>
<polygon class="st0" points="10.2,12 13.9,11.1 13.9,17.9 19.6,17.9 19.6,3.1 16.8,1.5 1,10.5 1,28.7 10.2,34 "/>
<polygon class="st0" points="23.3,5.2 23.3,27.2 19.6,28.1 19.6,20.9 13.9,20.9 13.9,36.1 16.7,37.7 32.5,28.7 32.5,10.5 "/>
<polygon class="st1" points="10.2,12 13.9,11.1 13.9,17.9 16.8,17.9 16.8,1.5 1,10.5 1,28.7 10.2,34 "/>
<polygon class="st1" points="13.9,20.9 13.9,36.1 16.7,37.7 16.8,37.7 16.8,20.9 "/>
</svg>
